<mxfile host="65bd71144e">
    <diagram id="G5VmnNw3XJ98NQHAUcAF" name="Page-1">
        <mxGraphModel dx="1737" dy="2613" grid="1" gridSize="10" guides="1" tooltips="1" connect="1" arrows="1" fold="1" page="1" pageScale="1" pageWidth="827" pageHeight="1169" math="0" shadow="0">
            <root>
                <mxCell id="0"/>
                <mxCell id="1" parent="0"/>
                <mxCell id="2" value="&lt;font style=&quot;font-size: 36px;&quot;&gt;Header&lt;/font&gt;" style="rounded=0;whiteSpace=wrap;html=1;" vertex="1" parent="1">
                    <mxGeometry width="820" height="70" as="geometry"/>
                </mxCell>
                <mxCell id="3" value="Sobre mim" style="rounded=0;whiteSpace=wrap;html=1;fontSize=36;" vertex="1" parent="1">
                    <mxGeometry y="130" width="350" height="230" as="geometry"/>
                </mxCell>
                <mxCell id="4" value="Imagem" style="rounded=0;whiteSpace=wrap;html=1;fontSize=36;" vertex="1" parent="1">
                    <mxGeometry x="470" y="130" width="350" height="230" as="geometry"/>
                </mxCell>
                <mxCell id="5" value="Informações do autor" style="rounded=0;whiteSpace=wrap;html=1;fontSize=36;" vertex="1" parent="1">
                    <mxGeometry y="390" width="440" height="480" as="geometry"/>
                </mxCell>
                <mxCell id="6" value="Especialidades do autor" style="rounded=0;whiteSpace=wrap;html=1;fontSize=36;" vertex="1" parent="1">
                    <mxGeometry y="970" width="820" height="460" as="geometry"/>
                </mxCell>
                <mxCell id="7" value="Experiências" style="rounded=0;whiteSpace=wrap;html=1;fontSize=36;" vertex="1" parent="1">
                    <mxGeometry y="1490" width="820" height="240" as="geometry"/>
                </mxCell>
                <mxCell id="8" value="Contato" style="rounded=0;whiteSpace=wrap;html=1;fontSize=36;" vertex="1" parent="1">
                    <mxGeometry y="1790" width="330" height="360" as="geometry"/>
                </mxCell>
                <mxCell id="9" value="Redes sociais" style="rounded=0;whiteSpace=wrap;html=1;fontSize=36;" vertex="1" parent="1">
                    <mxGeometry y="2200" width="820" height="210" as="geometry"/>
                </mxCell>
            </root>
        </mxGraphModel>
    </diagram>
</mxfile>